# xmcd
#
# Track frame offsets:
#	150
#	11132
#	26990
#	39267
#	53933
#	66708
#	77942
#	89736
#	101821
#	113502
#	125866
#	142112
#	156229
#	168081
#	178595
#	189485
#	203334
#	211637
#	225287
#	235436
#
# Disc length: 3297 seconds
# Revision: 3
# Processed by: cddbd v1.5.2PL0 Copyright (c) Steve Scherf et al.
# Submitted via: dBpowerAMP V12.0
#
DISCID=1a0cdf14
DTITLE=Various Artist - Ekte Country
DYEAR=2003
DGENRE=Country
TTITLE0=Roger Miller - King Of The Road
TTITLE1=Willie Nelson - Always On My Mind
TTITLE2=Patsy Cline - Crazy
TTITLE3=George Jones - He Stopped Loving Her Today
TTITLE4=David Allan Coe - Would You Lay With Me (In A Field Of Stone)
TTITLE5=Carl Smith - Hey Joe
TTITLE6=Johnny Paycheck - Take This Job And Shove It
TTITLE7=Merle Haggard - Okie From Muskogee
TTITLE8=Johnny Horton - Lost Highway
TTITLE9=Barbara Mandrell - The Midnight Oil
TTITLE10=Charlie Daniels Band - The Devil Went Down To Georgia
TTITLE11=Moe Brandy - Hank Williams, You Wrote My Life
TTITLE12=Stonewall Jackson - Smoke Along The Track
TTITLE13=Statler Brothers - Flowers On The Wall
TTITLE14=Frankie Laine - High Noon (Do Not Forsake Me)
TTITLE15=Barbara Fairchild - The Teddy Bear Song
TTITLE16=Johnny Western - The Ballad Of Paladin
TTITLE17=Lester Flatt and Earl Scruggs - Dueling Banjos
TTITLE18=Billy Walker - Charlie's Shoes
TTITLE19=Sandy Posey - Bring Him Safely Home To Me
EXTD=
EXTT0=
EXTT1=
EXTT2=
EXTT3=
EXTT4=
EXTT5=
EXTT6=
EXTT7=
EXTT8=
EXTT9=
EXTT10=
EXTT11=
EXTT12=
EXTT13=
EXTT14=
EXTT15=
EXTT16=
EXTT17=
EXTT18=
EXTT19=
PLAYORDER=
